<svg xmlns="http://www.w3.org/2000/svg" viewBox="0 0 96 96" role="img" aria-label="Logo Ahorcado">
  <defs>
    <linearGradient id="leaf" x1="10" x2="90" y1="10" y2="90">
      <stop stop-color="#1E00FF"/>
      <stop offset="1" stop-color="#6C63FF"/>
    </linearGradient>
  </defs>
  <rect width="96" height="96" rx="22" fill="#f7fff9"/>
  <path d="M48 77c-14-7-26-18-26-34 0-10 8-18 18-18 6 0 11 3 14 8 3-5 8-8 14-8 10 0 18 8 18 18 0 16-12 27-38 34Z" fill="url(#leaf)"/>
  <path d="M36 47c8 1 15 5 21 14M62 39c-9 5-15 12-18 23" fill="none" stroke="#fff" stroke-width="5" stroke-linecap="round"/>
</svg>
